<svg version="1.1" id="Layer_1" xmlns="http://www.w3.org/2000/svg" xmlns:xlink="http://www.w3.org/1999/xlink" x="0px" y="0px"
	 width="100%" viewBox="0 0 768 768" enable-background="new 0 0 768 768" xml:space="preserve">
<path fill="#000000" opacity="1.000000" stroke="none" 
	d="
M394.939941,60.735889 
	C438.575623,62.552349 480.339600,69.987724 518.951721,90.624046 
	C540.643616,102.217323 559.792419,116.931259 575.587524,135.851639 
	C577.614929,138.280182 579.901062,140.012253 582.999512,140.468842 
	C632.629700,147.782532 659.634949,179.291931 672.308167,225.200058 
	C682.558960,262.332977 678.523804,298.985962 665.632141,334.882050 
	C659.044922,353.223663 649.636108,370.013733 636.992676,384.891296 
	C634.825317,387.441528 635.500427,390.190460 635.380493,392.936554 
	C635.177856,397.578461 638.912048,396.324921 641.416992,396.858429 
	C658.435852,400.482880 668.642334,411.969391 674.559998,427.261627 
	C686.360046,457.755157 683.908630,487.399078 666.289917,515.101807 
	C657.558594,528.830505 645.334534,538.786682 628.956726,542.428528 
	C624.802185,543.352417 624.071899,546.185181 623.311646,549.532043 
	C617.831238,573.657837 610.039978,596.985901 598.154541,618.753113 
	C570.952515,668.571716 529.404602,700.419250 475.236786,716.389587 
	C448.978088,724.131470 422.120789,727.190857 394.879974,726.193237 
	C351.623749,724.609070 310.653381,714.547058 273.513794,691.417175 
	C244.948532,673.627197 221.793762,650.220337 202.370514,622.902405 
	C188.696869,603.671021 177.892593,582.848816 168.076019,561.493103 
	C166.152420,557.308350 164.327728,555.734619 159.301804,556.118225 
	C128.053833,558.503174 106.131798,543.414795 91.906677,517.033813 
	C77.940567,491.133118 76.712738,463.725220 86.820122,435.958496 
	C87.047852,435.332855 87.179947,434.600555 87.594414,434.125458 
	C93.963486,426.824341 91.279564,419.353119 88.738586,411.409027 
	C83.821068,396.034882 80.945297,380.193939 79.566124,364.071930 
	C78.601593,352.796783 77.458115,341.540985 77.688522,330.209778 
	C79.242722,253.774063 107.637123,189.661972 165.089050,138.634308 
	C206.098572,102.210472 253.914017,79.899635 307.234406,68.715080 
	C335.980438,62.685272 365.077271,60.108341 394.939941,60.735889 
M118.226006,526.279907 
	C131.147400,538.318604 146.238770,543.008972 163.725388,539.904297 
	C171.451599,538.532471 175.857559,540.943054 179.371536,548.230591 
	C183.349228,556.479797 187.065018,564.858582 191.173889,573.040833 
	C206.471558,603.504089 225.485092,631.229675 250.843155,654.359985 
	C281.986145,682.767029 318.565796,700.115601 359.836853,707.290527 
	C384.167297,711.520386 408.758270,711.801941 433.412445,708.864014 
	C458.438660,705.881653 482.298340,699.381226 504.873962,688.133362 
	C553.315796,663.998230 583.285400,624.325012 600.539490,574.112000 
	C607.311279,554.404663 610.747314,533.967285 612.881653,513.231201 
	C614.623657,496.306580 614.841003,479.416046 614.480225,461.514679 
	C600.207275,482.394836 581.867920,495.933044 557.834656,501.535950 
	C533.400940,507.232269 511.148865,501.794830 490.156799,488.785736 
	C489.297638,490.751007 488.589111,492.231354 487.993622,493.755859 
	C483.332062,505.690308 474.254944,511.637543 461.870636,513.332153 
	C451.568298,514.741821 441.303833,514.544312 431.000122,513.396179 
	C424.871124,512.713196 421.608734,509.992188 421.702393,505.137512 
	C421.797577,500.201965 425.048645,497.671387 431.456970,497.679169 
	C440.116425,497.689667 448.774323,498.451050 457.435577,497.663696 
	C472.671204,496.278748 478.953033,483.873566 470.178101,471.867523 
	C457.850586,455.000885 450.266022,436.617706 450.643921,415.417358 
	C450.679413,413.425262 450.178406,412.030029 448.021637,411.191467 
	C432.738586,405.249390 417.574280,405.077606 402.444183,411.701477 
	C399.738037,412.886200 398.415527,414.596710 398.269745,417.760315 
	C396.928955,446.855988 384.688171,470.570038 361.112122,487.485535 
	C334.784698,506.375092 305.834595,510.987122 275.665039,497.621582 
	C246.078384,484.514221 227.867020,461.832275 222.443588,429.480621 
	C220.669647,418.898865 219.439499,418.209076 208.976212,420.642456 
	C205.742996,421.394348 204.075729,422.876404 204.323761,426.444824 
	C204.773605,432.916595 204.977127,439.406189 205.238419,445.890137 
	C205.390091,449.653595 204.113388,452.787231 200.793137,454.804596 
	C192.659714,459.746368 179.988922,456.929504 174.646561,449.022369 
	C169.790833,441.835480 165.008453,434.554413 158.057907,429.158173 
	C147.703323,421.119080 136.455292,416.685333 123.221130,421.383881 
	C113.753784,424.745087 107.176491,431.361298 102.704437,440.119354 
	C89.405510,466.163971 96.094574,504.048950 118.226006,526.279907 
M500.363464,333.746429 
	C538.209900,317.036285 571.841675,324.452332 602.692566,352.123566 
	C595.436890,343.664124 588.679260,335.946899 582.096741,328.083038 
	C553.500977,293.920563 533.562805,255.420319 523.979553,211.748856 
	C521.927795,202.398773 521.869873,202.371201 513.289795,206.228485 
	C485.145691,218.881073 459.914520,236.239029 435.330566,254.625015 
	C403.192932,278.660309 371.983307,303.970428 337.958099,325.411774 
	C336.490906,326.336365 334.630798,327.134674 334.734589,329.913696 
	C367.312561,340.991089 387.592133,363.889526 396.509247,397.141235 
	C415.015350,389.488892 433.270569,389.852936 452.108734,395.420410 
	C455.662628,382.187744 460.750671,370.023285 469.204224,359.445038 
	C477.650604,348.875763 487.649597,340.273163 500.363464,333.746429 
M524.651855,486.718689 
	C532.680420,488.671600 540.804321,488.660217 548.883057,487.394318 
	C591.870789,480.658386 617.379578,439.943390 610.664856,403.059235 
	C604.003845,366.470184 572.564087,335.788116 528.264709,341.701355 
	C484.722260,347.513580 456.452667,391.671967 468.472656,433.890747 
	C476.489471,462.048737 495.477173,479.422516 524.651855,486.718689 
M252.026520,369.519836 
	C239.906723,386.059387 234.687607,404.332062 237.247604,424.898407 
	C242.112701,463.983704 279.883667,494.094757 318.581360,488.452820 
	C361.577637,482.184174 388.257172,441.614197 381.724426,405.495789 
	C376.329498,375.667999 359.628235,354.747925 330.652069,345.927795 
	C300.207764,336.660797 273.484863,344.185425 252.026520,369.519836 
M655.518433,503.018616 
	C664.676147,487.665955 667.128540,470.813049 665.417297,453.444031 
	C664.268799,441.787201 660.739441,430.598267 652.896729,421.351929 
	C648.331055,415.969116 642.633362,412.428589 635.558716,411.372253 
	C631.860657,410.820038 630.180969,412.013794 630.239624,416.215820 
	C630.462830,432.205322 630.327087,448.199707 630.341858,464.192261 
	C630.357239,480.835114 630.508789,497.477722 628.427124,514.046387 
	C627.926453,518.030945 627.935120,522.079407 627.674744,526.719666 
	C640.375916,522.348511 648.536560,513.926575 655.518433,503.018616 
M226.663315,368.435455 
	C223.256531,369.134644 219.859451,369.886261 216.440277,370.518555 
	C212.821884,371.187683 210.588120,372.852478 209.998138,376.872467 
	C209.183121,382.425842 207.947861,387.909027 207.122711,393.484375 
	C205.064056,407.394257 206.889664,404.371613 217.813705,403.084564 
	C220.836288,402.728394 222.330704,401.458038 222.900238,398.184021 
	C224.410553,389.501953 227.106735,381.135681 231.024261,373.197205 
	C231.680145,371.868195 232.295319,370.479401 231.766754,368.913300 
	C230.440140,367.755035 228.896454,368.501160 226.663315,368.435455 
M611.593628,361.082764 
	C610.394470,360.232635 609.723450,358.563080 607.745972,358.537476 
	C611.625793,364.916107 615.395752,371.114166 619.266235,377.477509 
	C619.523132,370.795715 616.724792,365.748779 611.593628,361.082764 
z"/>
<path fill="#000000" opacity="1.000000" stroke="none" 
	d="
M533.674438,575.515381 
	C520.340149,609.103271 499.308380,635.124451 465.533081,649.179199 
	C443.542267,658.330139 420.675751,660.576538 397.059021,657.622437 
	C377.965454,655.234253 359.944366,649.906677 343.481140,639.959167 
	C312.489532,621.233154 295.083435,592.723511 285.821960,558.558044 
	C284.522186,553.763184 283.638397,548.835022 282.872375,543.920166 
	C281.177765,533.047852 287.613586,527.126099 298.516876,529.191284 
	C317.615662,532.808594 336.882233,535.067261 356.248077,536.790771 
	C382.137146,539.094849 408.049500,540.090698 434.019592,539.636230 
	C456.633026,539.240601 479.153320,537.505127 501.627472,534.898743 
	C511.539795,533.749268 521.327942,532.037781 531.125061,530.271851 
	C539.452454,528.770874 545.647278,534.994019 543.812744,543.294983 
	C541.404297,554.192322 537.697754,564.707397 533.674438,575.515381 
M402.576965,583.647095 
	C439.403778,584.236938 475.992218,581.568726 512.335022,575.583435 
	C514.615417,575.207825 517.043823,574.956055 518.045776,572.283691 
	C520.991394,564.427246 523.915100,556.564514 525.945557,547.885132 
	C450.170135,559.498291 374.889709,557.173462 299.120117,545.828613 
	C300.942322,554.977173 303.360199,563.044006 306.334747,570.957581 
	C306.980713,572.676025 308.215820,573.361267 310.069641,573.737305 
	C340.278778,579.864441 370.850677,582.573730 402.576965,583.647095 
z"/>
<path fill="#000000" opacity="1.000000" stroke="none" 
	d="
M507.676575,413.913818 
	C507.932251,404.163452 510.376953,395.737915 517.542603,389.291016 
	C526.784790,380.975769 541.037659,381.542328 549.500122,390.489807 
	C559.996521,401.587769 560.387512,423.180664 550.299377,434.623627 
	C538.428101,448.089172 517.230591,444.040131 510.480286,426.946991 
	C508.896301,422.936035 507.792694,418.745117 507.676575,413.913818 
z"/>
<path fill="#000000" opacity="1.000000" stroke="none" 
	d="
M304.469788,384.953796 
	C329.033813,377.917236 340.804016,401.209930 337.873596,418.355896 
	C336.826294,424.483643 334.580811,430.200378 330.153961,434.855377 
	C318.406281,447.208588 299.253571,444.587036 291.674774,429.285767 
	C286.860992,419.566956 286.773560,409.397522 290.761017,399.297699 
	C293.310547,392.839996 297.651184,387.954742 304.469788,384.953796 
z"/>
</svg>